<svg version="1.1" width="600" height="181" xmlns="http://www.w3.org/2000/svg" >
<defs><marker id="arrowhead" markerWidth="10" markerHeight="7" refX="0" refY="3.5" orient="auto"><polygon points="0 0, 10 3.5, 0 7" /></marker></defs>
<path id="bottomxline" d="M 10 180 h 580" stroke="#FFFFFF" stroke-width="1" fill="none" /> 
<g transform="translate(0, -5)">
<text x="85" y="28" style="font-size:13px;font-family:'Microsoft Yahei'">主库</text>
<text x="505" y="28" style="font-size:13px;font-family:'Microsoft Yahei'">备库</text>

<g transform="translate(100, 20)">
<path d="M 9 20 h 40 a 5 5 0 0 1 5 5 v 90 a 5 5 0 0 1 -5 5 h -40 a 5 5 0 0 1 -5 -5 v -90 a 5 5 0 0 1 5 -5" stroke="#000000" stroke-width="6" fill="none" />
<path d="M 13 32 h 34" stroke="#000000" stroke-width="5" fill="none" />
<path d="M 13 40 h 34" stroke="#000000" stroke-width="5" fill="none" />
<path d="M 13 48 h 34" stroke="#000000" stroke-width="5" fill="none" />
<path d="M 13 56 h 34" stroke="#000000" stroke-width="5" fill="none" />
<circle cx="30" cy="75" r="8" fill="#000000" />
<circle cx="30" cy="75" r="2" fill="#FFFFFF" />
<circle cx="30" cy="97" r="3" fill="#000000" />
<rect x="15" y="105" width="30" height="5" style="fill:none;stroke:#000000;stroke-width:2" />
<path d="M 25 105 v 5" stroke="#000000" stroke-width="2" fill="none" />
<path d="M 35 105 v 5" stroke="#000000" stroke-width="2" fill="none" />
</g>
<g transform="translate(460, 20)">
<path d="M 9 20 h 40 a 5 5 0 0 1 5 5 v 90 a 5 5 0 0 1 -5 5 h -40 a 5 5 0 0 1 -5 -5 v -90 a 5 5 0 0 1 5 -5" stroke="#000000" stroke-width="6" fill="none" />
<path d="M 13 32 h 34" stroke="#000000" stroke-width="5" fill="none" />
<path d="M 13 40 h 34" stroke="#000000" stroke-width="5" fill="none" />
<path d="M 13 48 h 34" stroke="#000000" stroke-width="5" fill="none" />
<path d="M 13 56 h 34" stroke="#000000" stroke-width="5" fill="none" />
<circle cx="30" cy="75" r="8" fill="#000000" />
<circle cx="30" cy="75" r="2" fill="#FFFFFF" />
<circle cx="30" cy="97" r="3" fill="#000000" />
<rect x="15" y="105" width="30" height="5" style="fill:none;stroke:#000000;stroke-width:2" />
<path d="M 25 105 v 5" stroke="#000000" stroke-width="2" fill="none" />
<path d="M 35 105 v 5" stroke="#000000" stroke-width="2" fill="none" />
</g>

<path d="M 160 90 H 450" stroke="#000000" stroke-width="1" fill="none" marker-end="url(#arrowhead)" />
<rect x="180" y="70" width="30" height="15" style="fill:rgb(213,232,212);stroke:#0000FF;stroke-width:1" />
<rect x="215" y="70" width="50" height="15" style="fill:rgb(213,232,212);stroke:#0000FF;stroke-width:1" />
<rect x="270" y="70" width="20" height="15" style="fill:rgb(213,232,212);stroke:#0000FF;stroke-width:1" />
<rect x="295" y="70" width="40" height="15" style="fill:rgb(213,232,212);stroke:#0000FF;stroke-width:1" />
<rect x="340" y="70" width="35" height="15" style="fill:rgb(213,232,212);stroke:#0000FF;stroke-width:1" />
<rect x="380" y="70" width="55" height="15" style="fill:rgb(213,232,212);stroke:#0000FF;stroke-width:1" />

<text x="290" y="63" style="font-size:13px;font-family:'Microsoft Yahei'">WAL记录</text>

<g transform="translate(30, 60)">
<ellipse cx="31" cy="10" rx="30" ry="10" style="fill:rgb(115,131,191);stroke:rgb(115,131,191);stroke-width:1" />
<path d="M 1 15 a 30 10 0 0 0 60 0 v 15 a 30 10 0 0 1 -60 0 v -15" stroke="rgb(115,131,191)" stroke-width="1" fill="rgb(115,131,191)"/>
<path d="M 1 35 a 30 10 0 0 0 60 0 v 15 a 30 10 0 0 1 -60 0 v -15" stroke="rgb(115,131,191)" stroke-width="1" fill="rgb(115,131,191)"/>
<path d="M 1 55 a 30 10 0 0 0 60 0 v 15 a 30 10 0 0 1 -60 0 v -15" stroke="rgb(115,131,191)" stroke-width="1" fill="rgb(115,131,191)"/>
<circle cx="50" cy="29" r="3" fill="#FFFFFF" />
<circle cx="50" cy="49" r="3" fill="#FFFFFF" />
<circle cx="50" cy="69" r="3" fill="#FFFFFF" />
</g>

<g transform="translate(525, 60)">
<ellipse cx="31" cy="10" rx="30" ry="10" style="fill:rgb(115,131,191);stroke:rgb(115,131,191);stroke-width:1" />
<path d="M 1 15 a 30 10 0 0 0 60 0 v 15 a 30 10 0 0 1 -60 0 v -15" stroke="rgb(115,131,191)" stroke-width="1" fill="rgb(115,131,191)"/>
<path d="M 1 35 a 30 10 0 0 0 60 0 v 15 a 30 10 0 0 1 -60 0 v -15" stroke="rgb(115,131,191)" stroke-width="1" fill="rgb(115,131,191)"/>
<path d="M 1 55 a 30 10 0 0 0 60 0 v 15 a 30 10 0 0 1 -60 0 v -15" stroke="rgb(115,131,191)" stroke-width="1" fill="rgb(115,131,191)"/>
<circle cx="50" cy="29" r="3" fill="#FFFFFF" />
<circle cx="50" cy="49" r="3" fill="#FFFFFF" />
<circle cx="50" cy="69" r="3" fill="#FFFFFF" />
</g>
</g>
</svg>
