<svg version="1.1" width="600" height="321" xmlns="http://www.w3.org/2000/svg">
<defs><marker id="arrowhead" markerWidth="10" markerHeight="7" refX="0" refY="3.5" orient="auto"><polygon points="0 0, 10 3.5, 0 7" /></marker></defs>
<path id="bottomxline" d="M 10 320 h 580" stroke="#FFFFFF" stroke-width="1" fill="none" />
<g transform="translate(20, 20)">
<path d="M 0 5 a 5 5 0 0 1 5 -5 h 52 a 5 5 0 0 1 5 5 v 90 a 5 5 0 0 1 -5 5 h -52 a 5 5 0 0 1 -5 -5 v -90" stroke="#0000FF" stroke-width="1" fill="rgb(218,232,252)" />
<path d="M 10 20 h 42 " stroke="#0000FF" stroke-width="1"/>
<path d="M 10 30 h 42 " stroke="#0000FF" stroke-width="1"/>
<path d="M 10 40 h 42 " stroke="#0000FF" stroke-width="1"/>
<path d="M 10 50 h 42 " stroke="#0000FF" stroke-width="1"/>
<path d="M 10 60 h 42 " stroke="#0000FF" stroke-width="1"/>
<path d="M 10 70 h 42 " stroke="#0000FF" stroke-width="1"/>
<path d="M 10 80 h 42 " stroke="#0000FF" stroke-width="1"/>
</g>
<g transform="translate(20, 140)">
<path d="M 0 0 v 100 h 62 v -80 l -20 -20 h -42" stroke="#0000FF" stroke-width="1" fill="rgb(248,206,204)" />
<path d="M 42 0 v 20 h 20" stroke="#0000FF" stroke-width="1" fill="rgb(248,206,204)" />
<path d="M 10 40 h 42 " stroke="#0000FF" stroke-width="1"/>
<path d="M 10 50 h 42 " stroke="#0000FF" stroke-width="1"/>
<path d="M 10 60 h 42 " stroke="#0000FF" stroke-width="1"/>
<path d="M 10 70 h 42 " stroke="#0000FF" stroke-width="1"/>
</g>

<circle cx="160" cy="130" r="30" fill="none" stroke="#0000FF" stroke-width="1"/>

<g transform="translate(40, 80)">
<rect x="250" y="20" width="20" height="20" style="fill:#DAE8FC;stroke:#0000FF;stroke-width:1" />
<rect x="210" y="60" width="20" height="20" style="fill:#DAE8FC;stroke:#0000FF;stroke-width:1" />
<rect x="290" y="60" width="20" height="20" style="fill:#DAE8FC;stroke:#0000FF;stroke-width:1" />
<rect x="170" y="100" width="20" height="20" style="fill:#DAE8FC;stroke:#0000FF;stroke-width:1" />
<rect x="210" y="100" width="20" height="20" style="fill:#DAE8FC;stroke:#0000FF;stroke-width:1" />
<rect x="250" y="100" width="20" height="20" style="fill:#DAE8FC;stroke:#0000FF;stroke-width:1" />
<rect x="290" y="100" width="20" height="20" style="fill:#DAE8FC;stroke:#0000FF;stroke-width:1" />
<rect x="330" y="100" width="20" height="20" style="fill:#DAE8FC;stroke:#0000FF;stroke-width:1" />
<path d="M 260 42 v 8 H 220 V 58" stroke="#000000" stroke-width="1" fill="none" />
<path d="M 260 50 H 300 V 58" stroke="#000000" stroke-width="1" fill="none" />
<path d="M 220 82 v 8 H 180 V 98" stroke="#000000" stroke-width="1" fill="none" />
<path d="M 220 90 H 260 V 98" stroke="#000000" stroke-width="1" fill="none" />
<path d="M 220 90 V 98" stroke="#000000" stroke-width="1" fill="none" />
<path d="M 300 82 V 98" stroke="#000000" stroke-width="1" fill="none" />
<path d="M 300 90 H 340 V 98" stroke="#000000" stroke-width="1" fill="none" />
</g>


<rect x="460" y="20" width="50" height="31" style="fill:#DAE8FC;stroke:#0000FF;stroke-width:1" />
<rect x="460" y="80" width="50" height="31" style="fill:#DAE8FC;stroke:#0000FF;stroke-width:1" />
<rect x="460" y="140" width="50" height="31" style="fill:#DAE8FC;stroke:#0000FF;stroke-width:1" />
<rect x="460" y="200" width="50" height="31" style="fill:#DAE8FC;stroke:#0000FF;stroke-width:1" />

<path d="M 485 53 v 15" stroke="#000000" stroke-width="1" fill="none" marker-end="url(#arrowhead)"/>
<path d="M 485 113 v 15" stroke="#000000" stroke-width="1" fill="none" marker-end="url(#arrowhead)"/>
<path d="M 485 173 v 15" stroke="#000000" stroke-width="1" fill="none" marker-end="url(#arrowhead)"/>

<rect x="460" y="260" width="120" height="20" style="fill:none;stroke:#0000FF;stroke-width:1" />
<path d="M 480 260 v 20" stroke="#0000FF" stroke-width="1" fill="none" />
<path d="M 500 260 v 20" stroke="#0000FF" stroke-width="1" fill="none" />
<path d="M 520 260 v 20" stroke="#0000FF" stroke-width="1" fill="none" />
<path d="M 540 260 v 20" stroke="#0000FF" stroke-width="1" fill="none" />
<path d="M 560 260 v 20" stroke="#0000FF" stroke-width="1" fill="none" />

<path d="M 512 95 H 570 V 248" stroke="#000000" stroke-width="1" stroke-dasharray="3,3" fill="none" marker-end="url(#arrowhead)"/>
<path d="M 512 155 H 550 V 248" stroke="#000000" stroke-width="1" stroke-dasharray="3,3" fill="none" marker-end="url(#arrowhead)"/>

<path d="M 420 20 V 300" stroke="#000000" stroke-width="1" stroke-dasharray="3,3" fill="none"/>
<path d="M 85 130 h 30" stroke="#000000" stroke-width="1" fill="none" marker-end="url(#arrowhead)"/>
<path d="M 200 130 h 30" stroke="#000000" stroke-width="1" fill="none" marker-end="url(#arrowhead)"/>
<path d="M 380 130 h 60" stroke="#000000" stroke-width="1" fill="none" marker-end="url(#arrowhead)"/>

<text x="280" y="280" style="font-size:13px;font-family:'Microsoft Yahei'">平台无关部分</text>
<text x="280" y="93" style="font-size:13px;font-family:'Microsoft Yahei'">语法树</text>
<text x="465" y="15" style="font-size:13px;font-family:'Microsoft Yahei'">渲染树</text>
<text x="23" y="15" style="font-size:13px;font-family:'Microsoft Yahei'">*.md文件</text>
<text x="23" y="255" style="font-size:13px;font-family:'Microsoft Yahei'">*.svg文件</text>
<text x="140" y="135" style="font-size:13px;font-family:'Microsoft Yahei'">解析器</text>
<text x="480" y="295" style="font-size:13px;font-family:'Microsoft Yahei'">字体资源数组</text>
</svg>
