<svg version="1.1" width="600" height="126" xmlns="http://www.w3.org/2000/svg">
<defs><marker id="arrowhead" markerWidth="10" markerHeight="7" refX="0" refY="3.5" orient="auto"><polygon points="0 0, 10 3.5, 0 7" /></marker></defs>
<path id="bottomxline" d="M 10 125 h 580" stroke="#FFFFFF" stroke-width="1" fill="none" />
<g transform="translate(269, 5)">
<rect x="0" y="0" width="62" height="100" style="fill:none;stroke:#0000FF;stroke-width:1" />
<rect x="0" y="0" width="20" height="20" style="fill:#DAE8FC;stroke:#0000FF;stroke-width:1" />
<path d="M 0 20 h 62" stroke="#0000FF" stroke-width="1" fill="none" />
<path d="M 10 0 v 20" stroke="#0000FF" stroke-width="1" fill="none" />
</g>

<g transform="translate(137, 5)">
<rect x="0" y="0" width="62" height="100" style="fill:none;stroke:#0000FF;stroke-width:1" />
<rect x="0" y="0" width="20" height="20" style="fill:#DAE8FC;stroke:#0000FF;stroke-width:1" />
<path d="M 0 20 h 62" stroke="#0000FF" stroke-width="1" fill="none" />
<path d="M 10 0 v 20" stroke="#0000FF" stroke-width="1" fill="none" />
</g>

<g transform="translate(401, 5)">
<rect x="0" y="0" width="62" height="100" style="fill:none;stroke:#0000FF;stroke-width:1" />
<rect x="0" y="0" width="20" height="20" style="fill:#DAE8FC;stroke:#0000FF;stroke-width:1" />
<path d="M 0 20 h 62" stroke="#0000FF" stroke-width="1" fill="none" />
<path d="M 10 0 v 20" stroke="#0000FF" stroke-width="1" fill="none" />
</g>

<path d="M 201 55 H 257" stroke="#000000" stroke-width="1" fill="none" marker-end="url(#arrowhead)"/>
<path d="M 333 55 H 389" stroke="#000000" stroke-width="1" fill="none" marker-end="url(#arrowhead)"/>
</svg>
