<svg version="1.1" width="600" height="321" xmlns="http://www.w3.org/2000/svg" >
<defs><marker id="arrowhead" markerWidth="10" markerHeight="7" refX="0" refY="3.5" orient="auto"><polygon points="0 0, 10 3.5, 0 7" /></marker></defs>
<path id="bottomxline" d="M 10 320 h 580" stroke="#FFFFFF" stroke-width="1" fill="none" />
<path d="M 100 30 a 10 10 0 0 1 10 -10 h 380 a 10 10 0 0 1 10 10 v 228 a 10 10 0 0 1 -10 10 h -380 a 10 10 0 0 1 -10 -10 v -228" stroke="#0000FF" stroke-width="1" fill="#DAE8FC"/>

<rect x="200" y="40" width="200" height="210" style="fill:#FFFFFF;stroke:#0000FF;stroke-width:1" />

<path d="M 500 20 h 50" stroke="#000000" stroke-width="1" stroke-dasharray="3,3" fill="none"/>
<path d="M 400 40 h 150" stroke="#000000" stroke-width="1" stroke-dasharray="3,3" fill="none"/>

<path d="M 200 250 v 50" stroke="#000000" stroke-width="1" stroke-dasharray="3,3" fill="none"/>
<path d="M 400 250 v 50" stroke="#000000" stroke-width="1" stroke-dasharray="3,3" fill="none"/>

<path d="M 500 268 h 50" stroke="#000000" stroke-width="1" stroke-dasharray="3,3" fill="none"/>
<path d="M 400 250 h 150" stroke="#000000" stroke-width="1" stroke-dasharray="3,3" fill="none"/>

<text x="510" y="33" style="font-size:13px;font-family:'Arial'">top_margin</text>
<text x="510" y="263" style="font-size:13px;font-family:'Arial'">bottom_margin</text>

<text x="280" y="283" style="font-size:13px;font-family:'Arial'">width</text>

<path d="M 300 290 H 212" stroke="#000000" stroke-width="1" fill="none" marker-end="url(#arrowhead)"/>
<path d="M 300 290 H 388" stroke="#000000" stroke-width="1" fill="none" marker-end="url(#arrowhead)"/>
</svg>
