<svg version="1.1" width="600" height="231" xmlns="http://www.w3.org/2000/svg" >
<defs><marker id="arrowhead" markerWidth="10" markerHeight="7" refX="0" refY="3.5" orient="auto"><polygon points="0 0, 10 3.5, 0 7" /></marker></defs>

<path id="bottomxline" d="M 10 230 h 580" stroke="#FFFFFF" stroke-width="1" fill="none" />

<rect x="275" y="20" width="50" height="31" style="fill:none;stroke:#0000FF;stroke-width:1" />
<rect x="275" y="100" width="50" height="31" style="fill:none;stroke:#0000FF;stroke-width:1" />
<rect x="150" y="100" width="50" height="31" style="fill:none;stroke:#0000FF;stroke-width:1" />
<rect x="400" y="100" width="50" height="31" style="fill:none;stroke:#0000FF;stroke-width:1" />
<rect x="100" y="180" width="50" height="31" style="fill:none;stroke:#0000FF;stroke-width:1" />
<rect x="200" y="180" width="50" height="31" style="fill:none;stroke:#0000FF;stroke-width:1" />
<rect x="275" y="180" width="50" height="31" style="fill:none;stroke:#0000FF;stroke-width:1" />
<rect x="350" y="180" width="50" height="31" style="fill:none;stroke:#0000FF;stroke-width:1" />
<rect x="450" y="180" width="50" height="31" style="fill:none;stroke:#0000FF;stroke-width:1" />
<path d="M 300 53 v 10 H 175 V 88" stroke="#000000" stroke-width="1" fill="none" marker-end="url(#arrowhead)"/>
<path d="M 175 133 v 10 H 125 V 168" stroke="#000000" stroke-width="1" fill="none" marker-end="url(#arrowhead)"/>
<path d="M 202 115 H 263" stroke="#000000" stroke-width="1" fill="none" marker-end="url(#arrowhead)"/>
<path d="M 327 115 H 388" stroke="#000000" stroke-width="1" fill="none" marker-end="url(#arrowhead)"/>
<path d="M 300 133 V 168" stroke="#000000" stroke-width="1" fill="none" marker-end="url(#arrowhead)"/>
<path d="M 152 195 H 188" stroke="#000000" stroke-width="1" fill="none" marker-end="url(#arrowhead)"/>
<path d="M 425 133 v 10 H 375 V 168" stroke="#000000" stroke-width="1" fill="none" marker-end="url(#arrowhead)"/>
<path d="M 402 195 H 438" stroke="#000000" stroke-width="1" fill="none" marker-end="url(#arrowhead)"/>

<text x="290" y="40" style="font-size:15px;font-family:'Arial'">(1)</text>
<text x="165" y="120" style="font-size:15px;font-family:'Arial'">(2)</text>
<text x="115" y="200" style="font-size:15px;font-family:'Arial'">(3)</text>
<text x="215" y="200" style="font-size:15px;font-family:'Arial'">(4)</text>
<text x="290" y="120" style="font-size:15px;font-family:'Arial'">(5)</text>
<text x="290" y="200" style="font-size:15px;font-family:'Arial'">(6)</text>
<text x="415" y="120" style="font-size:15px;font-family:'Arial'">(7)</text>
<text x="365" y="200" style="font-size:15px;font-family:'Arial'">(8)</text>
<text x="465" y="200" style="font-size:15px;font-family:'Arial'">(9)</text>
</svg>
