<svg xmlns="http://www.w3.org/2000/svg" width="2500" height="2500" viewBox="0 0 192.756 192.756">
<g transform="translate(0, 0) scale(0.5 0.5)">
<path d="M28.199 117.491c.217-7.831 2.76-15.321 6.946-16.093 11.504-.296 35.721 15.457 35.721 16.093s-24.217 16.388-35.721 16.094c-4.186-.773-6.729-8.263-6.946-16.094zm-25.365.228c0-5.562 1.333-11.985 3.628-15.572C9.78 98.288 45.936 88.505 63.61 88.21c7.97 3.087 19.814 7.354 31.225 12.575 12.403-4.54 19.628-8.217 27.349-12.371 17.676.114 58.326 7.877 61.18 13.574 2.295 3.586 3.812 10.123 3.812 15.571 0 5.47-.898 11.576-3.193 15.162-3.318 3.859-44.898 12.644-62.574 12.938-7.969-3.087-14.635-5.562-26.046-10.691-11.411 5.152-18.078 7.627-26.047 10.714-17.674-.295-59.256-9.079-62.574-12.938-2.295-3.586-3.908-9.465-3.908-15.025zm159.691-.159c-.217-7.718-2.76-15.208-6.945-15.98-11.504-.295-35.723 15.458-35.723 15.98 0 .544 24.219 16.297 35.723 16.002 4.186-.772 6.729-8.262 6.945-16.002z" fill-rule="evenodd" clip-rule="evenodd" fill="#808183"/><path d="M82.607 21.903l-20.45-.295-15.211 15.545-13.958-15.526H6.018l.028 75.011c10.838-3.763 16.215-5.674 27.025-7.92l-.083-28.984 13.958 12.157 14.822-12.315-.056 24.531c6.463-1.714 13.29-5.083 17.413-7.901 9.194-7.152 9.919-11.822-.612-21.398s-10.142-19.921-7.885-24.177 6.519-6.935 11.979-8.728zM151.129 38.701v15.862c17.662-.001 17.467-15.724 0-15.862zm-14.551-17.103l14.582.06c12.867.079 38.371 4.217 38.762 24.354.389 20.137-25.117 26.305-38.793 26.285l-.033 16.531c-9.625-1.714-16.105-2.818-26.314-3.508 1.848-1.32 1.426.592 6.482-5.536 5.055-6.128 8.004-16.078-5.641-27.014-13.643-10.936-14.777-15.113-11.311-20.531 3.469-5.42 15.071-9.4 22.266-10.641z" fill-rule="evenodd" clip-rule="evenodd" fill="#474483"/><path d="M125.016 79.997c6.697-6.955 9.607-15.546-4.352-26.127-13.957-10.581-13.42-16.492-11.895-20.512 2.203-5.852 9.578-10.226 16.982-11.526l-32.975-.335c-8.816 2.167-14.806 5.438-17.377 10.009-2.571 4.571-1.328 12.926 8.053 21.872 9.38 8.945 12.517 16.669.678 24.826-4.832 3.33-10.737 6.306-14.891 7.625 6.244 2.187 20.429 7.527 26.503 10.364 7.942-3.841 21.307-7.921 29.274-16.196z" fill-rule="evenodd" clip-rule="evenodd" fill="#474483"/>
</g>
</svg>
